<svg width="1920" height="1290" viewBox="0 0 1920 1290" fill="none" xmlns="http://www.w3.org/2000/svg">
<path opacity="0.05" d="M859.633 1157.5C360.033 1148.7 7.79913 1274.83 -105.868 1339L-49.2169 800.5C-17.0502 623.5 -237.968 -85.7 -160.368 29.5C-63.3675 173.5 562.133 455.5 1202.63 533.5C1715.03 595.9 2036.8 203.833 2133.63 0L2369.63 212C2411.3 439.5 2403.23 925.3 2037.63 1048.5C1580.63 1202.5 1484.13 1168.5 859.633 1157.5Z" fill="black"/>
<path opacity="0.05" d="M859.633 1115.5C360.033 1106.7 7.79892 1232.83 -105.868 1297L-49.2171 758.5C-17.0504 581.5 -229.601 9.8 -152.001 125C-55.0009 269 558.499 499 1199 577C1711.4 639.4 2081.17 211.333 2178 7.5L2369.63 170C2411.3 397.5 2403.23 883.3 2037.63 1006.5C1580.63 1160.5 1484.13 1126.5 859.633 1115.5Z" fill="black"/>
<path opacity="0.05" d="M859.632 1043.5C360.032 1034.7 7.79936 1160.83 -105.867 1225L-49.2166 686.5C-17.0499 509.5 -241.6 -1.20011 -164 114C-67.0003 258 545.5 548.5 1186 626.5C1698.4 688.9 2109.17 301.833 2206 98L2369.63 97.9999C2411.3 325.5 2403.23 811.3 2037.63 934.5C1580.63 1088.5 1484.13 1054.5 859.632 1043.5Z" fill="black"/>
</svg>
