<svg width="120" height="120" viewBox="0 0 120 120" fill="none" xmlns="http://www.w3.org/2000/svg">
<g clip-path="url(#clip0_1869_75)">
<path d="M119.769 65.543C118.691 54.7058 113.85 44.489 106.135 36.7744C99.5427 30.1821 91.4735 25.9457 82.9829 24.062V18.1069C86.4508 17.2441 89.0285 14.1051 89.0285 10.374C89.0285 5.97989 85.4538 2.40515 81.0596 2.40515H64.1844C59.7902 2.40515 56.2155 5.97989 56.2155 10.374C56.2155 14.1049 58.7932 17.2439 62.2608 18.1069V24.0786C53.7962 25.9703 45.7538 30.2008 39.1799 36.7747C37.7413 38.2133 36.4147 39.7225 35.2004 41.2909C35.1416 41.2865 35.0827 41.282 35.0227 41.282H18.3207C17.0264 41.282 15.9769 42.3313 15.9769 43.6258C15.9769 44.9203 17.0264 45.9696 18.3207 45.9696H32.0112C30.2927 48.8466 28.9071 51.868 27.8524 54.9782H2.34379C1.04955 54.9782 0 56.0275 0 57.3219C0 58.6164 1.04955 59.6657 2.34379 59.6657H26.5279C25.8524 62.6309 25.4648 65.6485 25.3647 68.6745H15.0002C13.706 68.6745 12.6564 69.7239 12.6564 71.0183C12.6564 72.3128 13.706 73.3621 15.0002 73.3621H25.4395C25.6373 76.3959 26.125 79.4138 26.9029 82.3709H11.7189C10.4247 82.3709 9.37515 83.4202 9.37515 84.7147C9.37515 86.0092 10.4247 87.0585 11.7189 87.0585H28.3987C30.698 93.1409 34.2912 98.8416 39.1799 103.73C46.9017 111.452 57.1291 116.295 67.9775 117.367C69.5258 117.52 71.0753 117.595 72.6227 117.595C81.7686 117.595 90.7983 114.948 98.4601 109.959C99.5448 109.253 99.8516 107.801 99.1452 106.716C98.4388 105.631 96.9868 105.324 95.9021 106.031C79.1307 116.952 56.6695 114.591 42.4945 100.416C25.8625 83.7838 25.8625 56.7217 42.4945 40.0895C59.1262 23.4577 86.1883 23.4577 102.821 40.0895C116.977 54.246 119.351 76.6879 108.466 93.4512C107.761 94.5368 108.069 95.9886 109.155 96.6933C110.241 97.3983 111.692 97.0897 112.397 96.004C118.213 87.0472 120.831 76.2295 119.769 65.543ZM60.9031 10.3743C60.9031 8.56486 62.375 7.09296 64.1844 7.09296H81.0596C82.869 7.09296 84.3409 8.56486 84.3409 10.3743C84.3409 12.1837 82.869 13.6556 81.0596 13.6556H80.6391H64.6046H64.1844C62.375 13.6556 60.9031 12.1834 60.9031 10.3743ZM66.9484 23.2728V18.3431H78.2954V23.2644C74.5275 22.8162 70.7156 22.8191 66.9484 23.2728Z" fill="url(#paint0_linear_1869_75)"/>
<path d="M104.479 99.7281C103.86 99.7281 103.257 99.9789 102.822 100.415C102.383 100.851 102.135 101.455 102.135 102.072C102.135 102.688 102.383 103.293 102.822 103.729C103.257 104.167 103.86 104.416 104.479 104.416C105.095 104.416 105.697 104.167 106.136 103.729C106.571 103.293 106.822 102.688 106.822 102.072C106.822 101.455 106.572 100.851 106.136 100.415C105.697 99.9789 105.095 99.7281 104.479 99.7281Z" fill="url(#paint1_linear_1869_75)"/>
<path d="M72.6578 33.8933C52.6095 33.8933 36.2988 50.2037 36.2988 70.2522C36.2988 90.3007 52.6095 106.611 72.6578 106.611C92.706 106.611 109.017 90.3007 109.017 70.2522C109.017 50.2037 92.706 33.8933 72.6578 33.8933ZM72.6578 101.924C55.194 101.924 40.9864 87.7158 40.9864 70.2522C40.9864 52.7887 55.194 38.5809 72.6578 38.5809C90.1215 38.5809 104.329 52.7887 104.329 70.2522C104.329 87.7158 90.1215 101.924 72.6578 101.924Z" fill="url(#paint2_linear_1869_75)"/>
<path d="M87.4838 52.1117L75.875 63.7203C74.9042 63.2403 73.8123 62.9691 72.6579 62.9691C71.5034 62.9691 70.4117 63.2403 69.4409 63.7203L64.2454 58.5248C63.3299 57.6096 61.8463 57.6096 60.9306 58.5248C60.0153 59.44 60.0153 60.9241 60.9306 61.8394L66.126 67.0349C65.6458 68.0056 65.3749 69.0976 65.3749 70.2519C65.3749 74.2678 68.6419 77.535 72.6579 77.535C76.674 77.535 79.941 74.2678 79.941 70.2519C79.941 69.0976 79.6698 68.0056 79.1898 67.0349L90.4578 55.7669L90.7984 55.4263C91.7136 54.5111 91.7136 53.027 90.7984 52.1117C89.8831 51.1965 88.3995 51.1965 87.4838 52.1117ZM72.6579 72.8477C71.2268 72.8477 70.0624 71.6833 70.0624 70.2522C70.0624 68.8211 71.2268 67.6567 72.6579 67.6567C74.0891 67.6567 75.2535 68.8211 75.2535 70.2522C75.2535 71.6833 74.0891 72.8477 72.6579 72.8477Z" fill="url(#paint3_linear_1869_75)"/>
<path d="M97.7174 67.937H95.5459C94.2517 67.937 93.2021 68.9863 93.2021 70.2808C93.2021 71.5752 94.2517 72.6245 95.5459 72.6245H97.7174C99.0116 72.6245 100.061 71.5752 100.061 70.2808C100.061 68.9863 99.0116 67.937 97.7174 67.937Z" fill="url(#paint4_linear_1869_75)"/>
<path d="M49.7689 67.8799H47.5977C46.3034 67.8799 45.2539 68.9292 45.2539 70.2236C45.2539 71.5181 46.3034 72.5674 47.5977 72.5674H49.7689C51.0631 72.5674 52.1127 71.5181 52.1127 70.2236C52.1127 68.9292 51.0631 67.8799 49.7689 67.8799Z" fill="url(#paint5_linear_1869_75)"/>
<path d="M72.6865 49.7076C73.9807 49.7076 75.0303 48.6583 75.0303 47.3639V45.1926C75.0303 43.8982 73.9807 42.8489 72.6865 42.8489C71.3923 42.8489 70.3428 43.8982 70.3428 45.1926V47.3639C70.3428 48.6583 71.3923 49.7076 72.6865 49.7076Z" fill="url(#paint6_linear_1869_75)"/>
<path d="M72.6289 90.7966C71.3347 90.7966 70.2852 91.8459 70.2852 93.1404V95.3116C70.2852 96.6061 71.3347 97.6554 72.6289 97.6554C73.9231 97.6554 74.9727 96.6061 74.9727 95.3116V93.1404C74.9727 91.8459 73.9231 90.7966 72.6289 90.7966Z" fill="url(#paint7_linear_1869_75)"/>
<path d="M2.34375 82.37C1.72734 82.37 1.12266 82.6208 0.686719 83.0567C0.250781 83.4926 0 84.0973 0 84.7137C0 85.3325 0.250547 85.9348 0.686719 86.3708C1.12289 86.8067 1.72734 87.0575 2.34375 87.0575C2.96016 87.0575 3.56484 86.8067 4.00055 86.3708C4.43648 85.9348 4.6875 85.3302 4.6875 84.7137C4.6875 84.0973 4.43672 83.4926 4.00055 83.0567C3.56484 82.6208 2.96016 82.37 2.34375 82.37Z" fill="url(#paint8_linear_1869_75)"/>
</g>
<defs>
<linearGradient id="paint0_linear_1869_75" x1="0" y1="2.40515" x2="138.202" y2="35.7067" gradientUnits="userSpaceOnUse">
<stop stop-color="#F81F01"/>
<stop offset="1" stop-color="#EE076E"/>
</linearGradient>
<linearGradient id="paint1_linear_1869_75" x1="102.135" y1="99.7281" x2="107.557" y2="100.982" gradientUnits="userSpaceOnUse">
<stop stop-color="#F81F01"/>
<stop offset="1" stop-color="#EE076E"/>
</linearGradient>
<linearGradient id="paint2_linear_1869_75" x1="36.2988" y1="33.8933" x2="120.409" y2="53.3485" gradientUnits="userSpaceOnUse">
<stop stop-color="#F81F01"/>
<stop offset="1" stop-color="#EE076E"/>
</linearGradient>
<linearGradient id="paint3_linear_1869_75" x1="60.2441" y1="51.4253" x2="95.604" y2="61.2115" gradientUnits="userSpaceOnUse">
<stop stop-color="#F81F01"/>
<stop offset="1" stop-color="#EE076E"/>
</linearGradient>
<linearGradient id="paint4_linear_1869_75" x1="93.2021" y1="67.937" x2="100.701" y2="70.4751" gradientUnits="userSpaceOnUse">
<stop stop-color="#F81F01"/>
<stop offset="1" stop-color="#EE076E"/>
</linearGradient>
<linearGradient id="paint5_linear_1869_75" x1="45.2539" y1="67.8799" x2="52.7527" y2="70.4178" gradientUnits="userSpaceOnUse">
<stop stop-color="#F81F01"/>
<stop offset="1" stop-color="#EE076E"/>
</linearGradient>
<linearGradient id="paint6_linear_1869_75" x1="70.3428" y1="42.8489" x2="75.9155" y2="43.7298" gradientUnits="userSpaceOnUse">
<stop stop-color="#F81F01"/>
<stop offset="1" stop-color="#EE076E"/>
</linearGradient>
<linearGradient id="paint7_linear_1869_75" x1="70.2852" y1="90.7966" x2="75.8579" y2="91.6776" gradientUnits="userSpaceOnUse">
<stop stop-color="#F81F01"/>
<stop offset="1" stop-color="#EE076E"/>
</linearGradient>
<linearGradient id="paint8_linear_1869_75" x1="0" y1="82.37" x2="5.42187" y2="83.6241" gradientUnits="userSpaceOnUse">
<stop stop-color="#F81F01"/>
<stop offset="1" stop-color="#EE076E"/>
</linearGradient>
<clipPath id="clip0_1869_75">
<rect width="120" height="120" fill="white"/>
</clipPath>
</defs>
</svg>
