<svg width="120" height="120" viewBox="0 0 120 120" fill="none" xmlns="http://www.w3.org/2000/svg">
<g clip-path="url(#clip0_1869_97)">
<path d="M83.6194 59.0669C83.305 58.3426 83.0887 57.5787 82.9762 56.7966C82.6838 54.7646 82.1219 52.7774 81.3065 50.8897C80.9218 49.9991 79.8882 49.5883 78.9964 49.9736C78.1053 50.3585 77.6953 51.3928 78.0802 52.2837C78.7724 53.8859 79.2492 55.5728 79.4974 57.2971C79.6546 58.3885 79.9566 59.4546 80.395 60.4655L84.2097 69.2617C85.8208 72.9765 85.3063 77.1084 82.8333 80.3148C80.7264 83.0464 77.6076 84.5676 74.2562 84.5802C75.2277 82.5337 75.7734 80.2473 75.7734 77.8353V61.6631C75.7734 59.703 74.2384 58.127 72.2786 58.0752L62.3359 57.8133C58.9451 57.7238 55.6291 56.4957 52.9982 54.3555L52.3438 53.8229C51.7332 53.3259 50.966 53.0991 50.1829 53.182C49.4001 53.2657 48.6981 53.6502 48.2062 54.2648C45.6267 57.4878 44.206 61.5361 44.206 65.664V77.8353C44.206 80.2473 44.7517 82.5335 45.7232 84.5802C42.372 84.5678 39.2531 83.0467 37.1463 80.3148C34.6731 77.1084 34.1586 72.9767 35.7697 69.2617L39.5844 60.4657C40.0228 59.4547 40.3248 58.3885 40.4821 57.2971C41.1571 52.6056 43.5019 48.3123 47.0841 45.2085C50.6663 42.1048 55.2498 40.3955 59.9895 40.3955C65.3459 40.3955 70.3582 42.5097 74.1025 46.3489C74.7799 47.0442 75.8927 47.0575 76.5874 46.3801C77.2822 45.7027 77.2962 44.5897 76.6186 43.8952C72.2071 39.3717 66.3015 36.8807 59.9892 36.8807C54.4041 36.8807 49.0034 38.8949 44.7824 42.5521C40.5615 46.2093 37.7984 51.2682 37.0029 56.7963C36.8905 57.5787 36.6742 58.3426 36.3597 59.0669L32.5451 67.863C30.4173 72.7694 31.0968 78.2266 34.3632 82.4613C37.1571 86.0838 41.2965 88.1027 45.7438 88.1025C46.4496 88.1025 47.1642 88.0495 47.8815 87.9462C49.1212 89.4282 50.6277 90.679 52.326 91.6266V95.0181L43.3407 98.6227C37.0451 101.149 32.9772 107.164 32.9772 113.948V118.242C32.9772 119.213 33.7638 120 34.7345 120C35.7053 120 36.4919 119.213 36.4919 118.242V113.948C36.4919 108.608 39.6941 103.873 44.6496 101.885L52.7374 98.6401C53.7476 101.545 56.5111 103.635 59.7552 103.635C62.9993 103.635 65.7628 101.544 66.7729 98.6401L74.8617 101.885C75.074 101.97 75.2982 102.069 75.5677 102.196C75.8095 102.309 76.0639 102.363 76.3147 102.363C76.9743 102.363 77.6067 101.99 77.9061 101.353C78.3192 100.475 77.942 99.4283 77.0638 99.0152C76.7308 98.8587 76.4466 98.734 76.1699 98.623L67.1846 95.0181V91.8761C69.0748 90.9035 70.7452 89.5632 72.0977 87.9462C72.8152 88.0498 73.5291 88.1025 74.2354 88.1025C78.6824 88.1025 82.8223 86.0836 85.616 82.4613C88.8822 78.2268 89.5619 72.7696 87.4341 67.863L83.6194 59.0669ZM63.6699 96.2067C63.6699 98.365 61.9139 100.121 59.7554 100.121C57.5969 100.121 55.8409 98.365 55.8409 96.2067V93.0615C57.1639 93.4224 58.5541 93.6187 59.9897 93.6187C61.2569 93.6187 62.4882 93.4645 63.6699 93.181V96.2067ZM59.9897 90.104C53.2248 90.104 47.721 84.6004 47.721 77.8355V65.6642C47.721 62.5282 48.7365 59.4493 50.5916 56.9287L50.7802 57.0822C54.01 59.7096 58.081 61.2169 62.2434 61.3268L72.1858 61.5888C72.2268 61.59 72.2589 61.6228 72.2589 61.6633V77.8355C72.2584 84.6004 66.7546 90.104 59.9897 90.104Z" fill="url(#paint0_linear_1869_97)"/>
<path d="M81.0459 103.989C80.2537 104.55 80.066 105.647 80.627 106.439C82.1915 108.649 83.0184 111.245 83.0184 113.948V118.243C83.0184 119.213 83.805 120 84.7758 120C85.7465 120 86.5331 119.213 86.5331 118.243V113.948C86.5331 110.514 85.4829 107.215 83.4955 104.408C82.9347 103.616 81.8379 103.428 81.0459 103.989Z" fill="url(#paint1_linear_1869_97)"/>
<path d="M26.7714 26.3182C22.8567 23.6433 17.96 23.1425 13.336 24.9465C9.96303 26.262 7.2663 28.9416 5.93632 32.2979C5.071 34.4824 4.7139 36.7164 4.87581 38.9379C4.94658 39.9059 5.78543 40.6341 6.75619 40.5631C7.72415 40.4926 8.4517 39.6507 8.3814 38.6828C8.25839 36.9936 8.53511 35.281 9.20408 33.5927C10.1756 31.1409 12.1473 29.1832 14.6135 28.2211C18.1385 26.8461 21.8475 27.2102 24.7886 29.2202C27.6632 31.1842 29.3791 34.432 29.3791 37.9079C29.3791 40.0893 28.7171 42.1808 27.465 43.9572C27.4504 43.9778 27.4364 43.9989 27.4225 44.02L21.518 53.2122C21.3362 53.4957 21.2394 53.8251 21.2394 54.1621V54.9625H20.623V46.1647C22.408 46.0044 23.812 44.502 23.812 42.6759V39.7922C23.812 37.8598 22.2397 36.2876 20.3073 36.2876H17.4236C15.4912 36.2876 13.919 37.8598 13.919 39.7922V42.6759C13.919 44.5017 15.3232 46.0044 17.108 46.1647V54.9627H16.4915V54.1623C16.4915 53.8254 16.3947 53.4959 16.2129 53.2124L10.8396 44.8471C10.3152 44.0305 9.22798 43.7939 8.41116 44.3183C7.59481 44.8427 7.35791 45.9301 7.88231 46.7467L12.9768 54.678V55.937C12.9768 56.4396 13.1253 56.9073 13.3782 57.3021V59.1218C13.3782 61.9488 15.6782 64.2491 18.5057 64.2491H19.225C22.0523 64.2491 24.3526 61.9491 24.3526 59.1218V57.3021C24.6054 56.9073 24.7539 56.4396 24.7539 55.937V54.678L30.3599 45.9505C32.0175 43.5853 32.8936 40.8052 32.8936 37.9081C32.8936 33.2703 30.605 28.9378 26.7714 26.3182ZM20.297 39.7922L20.3083 42.6659L18.9589 42.6706C18.9277 42.6689 18.8968 42.6659 18.8651 42.6659C18.8288 42.6659 18.7932 42.6692 18.7576 42.6713L17.4335 42.6759L17.4234 39.8023L20.297 39.7922ZM20.8378 59.1216C20.8378 60.0108 20.1143 60.7341 19.225 60.7341H18.5057C17.6165 60.7341 16.8929 60.0108 16.8929 59.1216V58.4772H20.8378V59.1216Z" fill="url(#paint2_linear_1869_97)"/>
<path d="M59.755 31.203C68.3578 31.203 75.3566 24.2043 75.3566 15.6014C75.3566 6.99876 68.3578 0 59.755 0C51.1521 0 44.1533 6.99876 44.1533 15.6014C44.1533 24.2043 51.1521 31.203 59.755 31.203ZM59.755 3.51473C66.4196 3.51473 71.8419 8.93678 71.8419 15.6014C71.8419 22.266 66.4196 27.6883 59.755 27.6883C53.0903 27.6883 47.668 22.266 47.668 15.6014C47.668 8.93678 53.0903 3.51473 59.755 3.51473Z" fill="url(#paint3_linear_1869_97)"/>
<path d="M56.665 21.4658C57.008 21.8089 57.4579 21.9804 57.9075 21.9804C58.3572 21.9804 58.8071 21.8089 59.1504 21.4658L67.3603 13.2559C68.0466 12.5694 68.0466 11.4568 67.3603 10.7705C66.6737 10.0845 65.5612 10.0845 64.8749 10.7705L57.9078 17.7379L56.7254 16.5558C56.0394 15.8697 54.9266 15.8695 54.2403 16.556C53.554 17.2423 53.554 18.3551 54.2405 19.0411L56.665 21.4658Z" fill="url(#paint4_linear_1869_97)"/>
<path d="M115.026 34.954C114.701 33.9537 113.853 33.2388 112.812 33.0874L105.509 32.0262L102.243 25.408C101.777 24.4653 100.835 23.8798 99.7839 23.8798C98.733 23.8798 97.7908 24.4653 97.3255 25.408L94.0591 32.0262L86.7555 33.0874C85.7152 33.2388 84.8669 33.9537 84.5424 34.9537C84.2176 35.9535 84.4836 37.0302 85.2362 37.7639L90.5212 42.9153L89.2735 50.1896C89.0961 51.2257 89.5141 52.2532 90.3644 52.8709C91.2148 53.489 92.321 53.5689 93.2517 53.0796L99.7841 49.6453L106.317 53.0796C106.722 53.2924 107.159 53.3974 107.595 53.3974C108.161 53.3974 108.723 53.2198 109.204 52.8706C110.055 52.2525 110.472 51.2253 110.295 50.1894L109.047 42.9155L114.332 37.7641C115.084 37.0305 115.35 35.9535 115.026 34.954ZM106.303 40.6818C105.656 41.3116 105.361 42.2189 105.514 43.1088L106.565 49.2397L101.06 46.3452C100.66 46.1352 100.222 46.03 99.7839 46.03C99.3457 46.03 98.9073 46.135 98.5078 46.3449L93.0021 49.2397L94.0537 43.1084C94.206 42.2187 93.9113 41.3114 93.2653 40.682L88.8109 36.3404L94.9671 35.446C95.8603 35.3157 96.6319 34.755 97.0307 33.9462L99.7837 28.3681L102.536 33.9452C102.935 34.7548 103.707 35.3157 104.601 35.4458L110.756 36.3402L106.303 40.6818Z" fill="url(#paint5_linear_1869_97)"/>
<path d="M78.3897 22.542C81.0714 23.588 83.6697 24.8692 86.1448 26.3569C85.3711 26.7203 84.957 27.6025 85.2085 28.4467C85.4357 29.2094 86.1347 29.7027 86.892 29.7027C87.0581 29.7027 87.2271 29.6788 87.3946 29.6291L90.7238 28.6375C91.4687 28.4158 91.9792 27.7307 91.9792 26.9532V23.3523C91.9792 22.3815 91.1926 21.5949 90.2219 21.5949C89.2511 21.5949 88.4645 22.3815 88.4645 23.3523V23.6559C85.6677 21.933 82.7182 20.4578 79.6669 19.2674C78.7627 18.9146 77.7439 19.3616 77.391 20.2661C77.0386 21.1703 77.4854 22.1891 78.3897 22.542Z" fill="url(#paint6_linear_1869_97)"/>
<path d="M32.0237 26.8703C32.3375 26.8703 32.6552 26.7864 32.942 26.6102C34.5827 25.6022 36.2911 24.6832 38.037 23.8654L37.9456 24.2075C37.6949 25.145 38.2518 26.1083 39.1896 26.3592C39.3414 26.3998 39.4942 26.4192 39.6444 26.4192C40.4204 26.4192 41.1311 25.9007 41.3411 25.1152L42.4142 21.0996C42.6532 20.2061 42.1583 19.2801 41.2827 18.9823L38.0623 17.8862C37.1442 17.5726 36.1451 18.0645 35.8325 18.9837C35.6064 19.6477 35.8018 20.3519 36.2737 20.8102C34.5028 21.6516 32.7698 22.5912 31.1024 23.6156C30.2755 24.1239 30.0168 25.2059 30.5248 26.0328C30.8566 26.5727 31.4333 26.8703 32.0237 26.8703Z" fill="url(#paint7_linear_1869_97)"/>
</g>
<defs>
<linearGradient id="paint0_linear_1869_97" x1="31.3232" y1="36.8807" x2="99.4518" y2="47.7504" gradientUnits="userSpaceOnUse">
<stop stop-color="#F81F01"/>
<stop offset="1" stop-color="#EE076E"/>
</linearGradient>
<linearGradient id="paint1_linear_1869_97" x1="80.3037" y1="103.666" x2="87.836" y2="104.33" gradientUnits="userSpaceOnUse">
<stop stop-color="#F81F01"/>
<stop offset="1" stop-color="#EE076E"/>
</linearGradient>
<linearGradient id="paint2_linear_1869_97" x1="4.83789" y1="23.8795" x2="38.164" y2="29.2367" gradientUnits="userSpaceOnUse">
<stop stop-color="#F81F01"/>
<stop offset="1" stop-color="#EE076E"/>
</linearGradient>
<linearGradient id="paint3_linear_1869_97" x1="44.1533" y1="0" x2="80.2451" y2="8.34826" gradientUnits="userSpaceOnUse">
<stop stop-color="#F81F01"/>
<stop offset="1" stop-color="#EE076E"/>
</linearGradient>
<linearGradient id="paint4_linear_1869_97" x1="53.7256" y1="10.256" x2="69.721" y2="14.721" gradientUnits="userSpaceOnUse">
<stop stop-color="#F81F01"/>
<stop offset="1" stop-color="#EE076E"/>
</linearGradient>
<linearGradient id="paint5_linear_1869_97" x1="84.4062" y1="23.8798" x2="119.826" y2="32.4161" gradientUnits="userSpaceOnUse">
<stop stop-color="#F81F01"/>
<stop offset="1" stop-color="#EE076E"/>
</linearGradient>
<linearGradient id="paint6_linear_1869_97" x1="77.2705" y1="19.1467" x2="93.5072" y2="24.3799" gradientUnits="userSpaceOnUse">
<stop stop-color="#F81F01"/>
<stop offset="1" stop-color="#EE076E"/>
</linearGradient>
<linearGradient id="paint7_linear_1869_97" x1="30.2646" y1="17.7916" x2="43.83" y2="22.0114" gradientUnits="userSpaceOnUse">
<stop stop-color="#F81F01"/>
<stop offset="1" stop-color="#EE076E"/>
</linearGradient>
<clipPath id="clip0_1869_97">
<rect width="120" height="120" fill="white"/>
</clipPath>
</defs>
</svg>
