<svg width="120" height="120" viewBox="0 0 120 120" fill="none" xmlns="http://www.w3.org/2000/svg">
<g clip-path="url(#clip0_1869_30)">
<path d="M73.5728 48.8531L55.5427 65.8829L46.8897 56.9807C45.9304 55.9931 44.3508 55.9706 43.3641 56.9299C42.3765 57.8901 42.3541 59.4688 43.3133 60.4564L53.6916 71.1101C54.6558 72.0801 56.2139 72.1133 57.2181 71.1843L77.0495 52.4793C77.5311 52.025 77.8124 51.3979 77.831 50.7365C77.8495 50.0752 77.6043 49.4334 77.1491 48.9528C76.184 47.9495 74.5926 47.9056 73.5728 48.8531Z" fill="url(#paint0_linear_1869_30)"/>
<path d="M60.1933 22.6448C39.5873 22.6448 22.832 39.4 22.832 60.0061C22.832 80.6131 39.5873 97.3683 60.1933 97.3683C80.8003 97.3683 97.5556 80.6131 97.5556 60.0061C97.5556 39.4 80.8003 22.6448 60.1933 22.6448ZM60.1933 92.3668C42.3381 92.3668 27.8336 77.8368 27.8336 60.0061C27.8336 42.1753 42.3381 27.6463 60.1933 27.6463C78.0661 27.6463 92.554 42.1343 92.554 60.0061C92.554 77.8779 78.0661 92.3668 60.1933 92.3668Z" fill="url(#paint1_linear_1869_30)"/>
<path d="M111.61 46.2518L112.436 31.4219C112.493 30.4265 111.952 29.4916 111.06 29.0462L97.856 22.3693L91.1791 9.16497C90.7248 8.28091 89.7958 7.74265 88.8033 7.78954L73.9481 8.59058L61.5692 0.412238C60.735 -0.137738 59.6536 -0.137738 58.8184 0.412238L46.4395 8.59058L31.6106 7.76512C30.6142 7.70651 29.6804 8.2477 29.2349 9.14055L22.557 22.3449L9.35369 29.0218C8.46865 29.475 7.93137 30.404 7.97826 31.3975L8.80274 46.2273L0.625373 58.6062C0.0753965 59.4405 0.0753965 60.5218 0.625373 61.3571L8.77831 73.7604L7.95286 88.5902C7.89522 89.5856 8.43543 90.5205 9.32829 90.9659L22.5326 97.6428L29.2095 110.847C29.6628 111.732 30.5918 112.269 31.5852 112.223L46.4151 111.397L58.794 119.574C59.6233 120.142 60.7155 120.142 61.5448 119.574L73.9237 111.397L88.7535 112.223C89.7489 112.28 90.6828 111.739 91.1293 110.847L97.8062 97.6428L111.01 90.9659C111.895 90.5117 112.433 89.5837 112.386 88.5902L111.56 73.7604L119.738 61.3815C120.288 60.5472 120.288 59.4649 119.738 58.6306L111.61 46.2518ZM106.958 71.7099C106.654 72.1573 106.512 72.6956 106.559 73.2358L107.334 87.2646L94.855 93.5664C94.3793 93.8047 93.9934 94.1916 93.7551 94.6673L87.4523 107.146L73.4235 106.371C72.8863 106.352 72.3558 106.49 71.8977 106.771L60.1938 114.499L48.4909 106.771C48.0845 106.496 47.6059 106.348 47.1155 106.346H46.9905L32.9607 107.121L26.6589 94.6419C26.4205 94.1662 26.0347 93.7803 25.558 93.5419L13.0541 87.2646L13.8297 73.2358C13.8492 72.6985 13.7095 72.1681 13.4292 71.7099L5.70216 60.0061L13.4292 48.3022C13.7349 47.8558 13.8766 47.3165 13.8297 46.7773L13.0541 32.7475L25.5336 26.4458C26.0093 26.2074 26.3952 25.8215 26.6335 25.3458L32.9353 12.8663L46.9651 13.642C47.5014 13.6605 48.0318 13.5218 48.4909 13.2414L60.1938 5.51442L71.8977 13.2414C72.3451 13.5472 72.8843 13.6888 73.4235 13.642L87.4523 12.8663L93.7551 25.3458C93.9934 25.8215 94.3793 26.2074 94.855 26.4458L107.334 32.7475L106.559 46.7773C106.539 47.3136 106.679 47.8441 106.958 48.3022L114.686 60.0061L106.958 71.7099Z" fill="url(#paint2_linear_1869_30)"/>
</g>
<defs>
<linearGradient id="paint0_linear_1869_30" x1="42.6084" y1="48.1704" x2="80.9901" y2="61.3708" gradientUnits="userSpaceOnUse">
<stop stop-color="#F81F01"/>
<stop offset="1" stop-color="#EE076E"/>
</linearGradient>
<linearGradient id="paint1_linear_1869_30" x1="22.832" y1="22.6448" x2="109.262" y2="42.6365" gradientUnits="userSpaceOnUse">
<stop stop-color="#F81F01"/>
<stop offset="1" stop-color="#EE076E"/>
</linearGradient>
<linearGradient id="paint2_linear_1869_30" x1="0.212891" y1="-0.000244141" x2="138.948" y2="32.073" gradientUnits="userSpaceOnUse">
<stop stop-color="#F81F01"/>
<stop offset="1" stop-color="#EE076E"/>
</linearGradient>
<clipPath id="clip0_1869_30">
<rect width="120" height="120" fill="white"/>
</clipPath>
</defs>
</svg>
