<svg xmlns="http://www.w3.org/2000/svg" style="display: none;">
	<symbol id="whatsapp" viewBox="0 0 30 31">
		<path fill-rule="evenodd" clip-rule="evenodd" d="M25.6119 5.34412C22.8053 2.53418 19.0726 0.986023 15.0961 0.984375C6.90217 0.984375 0.23346 7.65289 0.230164 15.8491C0.229065 18.4691 0.913514 21.0267 2.21448 23.2811L0.105469 30.9844L7.98615 28.9171C10.1576 30.1016 12.6022 30.7258 15.0901 30.7266H15.0963C23.2894 30.7266 29.9588 24.0575 29.9619 15.861C29.9636 11.8887 28.4187 8.15387 25.6119 5.34412ZM15.0961 28.216H15.091C12.874 28.2151 10.6996 27.6193 8.80225 26.4937L8.35126 26.2258L3.67475 27.4526L4.92298 22.8931L4.62909 22.4257C3.39221 20.4584 2.73908 18.1846 2.74018 15.85C2.74274 9.03754 8.28571 3.49512 15.1011 3.49512C18.4014 3.49622 21.5037 4.78308 23.8365 7.11859C26.1693 9.4541 27.4532 12.5585 27.4521 15.86C27.4492 22.673 21.9066 28.216 15.0961 28.216ZM21.8736 18.962C21.5023 18.776 19.676 17.8777 19.3354 17.7535C18.9952 17.6296 18.7473 17.5679 18.4999 17.9396C18.2522 18.3113 17.5404 19.1481 17.3236 19.3958C17.1068 19.6437 16.8904 19.6749 16.5189 19.4888C16.1474 19.303 14.9506 18.9106 13.5317 17.6451C12.4276 16.6602 11.6821 15.4438 11.4653 15.0721C11.2489 14.7001 11.4635 14.5184 11.6283 14.3141C12.0304 13.8148 12.4331 13.2913 12.5568 13.0435C12.6808 12.7956 12.6187 12.5786 12.5257 12.3928C12.4331 12.2069 11.6902 10.3786 11.3807 9.63464C11.079 8.91064 10.773 9.00842 10.5449 8.99707C10.3284 8.98627 10.0807 8.98407 9.83296 8.98407C9.5854 8.98407 9.18293 9.0769 8.84235 9.44897C8.50196 9.82086 7.54249 10.7194 7.54249 12.5477C7.54249 14.376 8.87348 16.1422 9.05915 16.3901C9.24482 16.6381 11.6785 20.3899 15.4045 21.9987C16.2907 22.3817 16.9825 22.61 17.5221 22.7812C18.412 23.064 19.2215 23.024 19.8617 22.9285C20.5754 22.8217 22.0591 22.0298 22.3689 21.1622C22.6784 20.2945 22.6784 19.5509 22.5853 19.3958C22.4927 19.2409 22.245 19.1481 21.8736 18.962Z"/>
	</symbol>
	<symbol id="telegram" viewBox="0 0 32 32">
		<g clip-path="url(#clip0_1869_727)">
			<path d="M16 32C24.8387 32 32 24.8387 32 16C32 7.16133 24.8387 0 16 0C7.16133 0 0 7.16133 0 16C0 24.8387 7.16133 32 16 32ZM7.32133 15.6533L22.748 9.70533C23.464 9.44667 24.0893 9.88 23.8573 10.9627L23.8587 10.9613L21.232 23.336C21.0373 24.2133 20.516 24.4267 19.7867 24.0133L15.7867 21.0653L13.8573 22.924C13.644 23.1373 13.464 23.3173 13.0507 23.3173L13.3347 19.2467L20.748 12.5493C21.0707 12.2653 20.676 12.1053 20.2507 12.388L11.0893 18.156L7.14 16.924C6.28267 16.652 6.264 16.0667 7.32133 15.6533Z"/>
		</g>
	</symbol>
	<symbol id="vc" viewBox="0 0 32 32">
		<g clip-path="url(#clip0_1869_729)">
			<path d="M16 0C7.16374 0 0 7.16342 0 16C0 24.8366 7.16374 32 16 32C24.8363 32 32 24.8366 32 16C32 7.16342 24.8363 0 16 0ZM24.1161 17.7305C24.8618 18.4588 25.6507 19.1443 26.3202 19.948C26.6168 20.3036 26.8964 20.6712 27.1092 21.0846C27.413 21.6742 27.1386 22.3208 26.6109 22.3558L23.333 22.3552C22.4864 22.4252 21.8127 22.0838 21.2447 21.505C20.7913 21.0437 20.3707 20.551 19.934 20.0741C19.7555 19.8783 19.5676 19.694 19.3437 19.549C18.8969 19.2583 18.5086 19.3473 18.2526 19.8141C17.9917 20.2891 17.9321 20.8155 17.9072 21.3442C17.8715 22.1172 17.6385 22.3191 16.8629 22.3555C15.2058 22.4331 13.6335 22.1816 12.1721 21.3462C10.8829 20.6093 9.88514 19.5693 9.01565 18.3917C7.32252 16.0962 6.02582 13.5768 4.86073 10.9851C4.59851 10.4014 4.79034 10.0891 5.43427 10.077C6.5041 10.0563 7.57393 10.059 8.64376 10.076C9.07916 10.0829 9.36724 10.332 9.53453 10.7428C10.1127 12.1652 10.8214 13.5186 11.7095 14.7737C11.9462 15.1079 12.1878 15.4412 12.5319 15.6772C12.9116 15.9378 13.201 15.8517 13.3801 15.4278C13.4947 15.1583 13.5441 14.8703 13.569 14.5815C13.6541 13.5926 13.6642 12.6039 13.5169 11.6189C13.4253 11.0024 13.0786 10.6044 12.4641 10.4878C12.1512 10.4286 12.197 10.3127 12.3492 10.1339C12.6134 9.8249 12.8609 9.63372 13.3555 9.63372L17.059 9.63306C17.6427 9.74764 17.7737 10.0095 17.8529 10.5975L17.8562 14.7131C17.8493 14.9406 17.9704 15.615 18.379 15.764C18.7063 15.872 18.9224 15.6095 19.1182 15.4022C20.0063 14.4597 20.6391 13.3474 21.2058 12.196C21.4559 11.6883 21.6716 11.1628 21.8811 10.6364C22.0369 10.2472 22.2792 10.0557 22.7185 10.0622L26.2848 10.0665C26.3899 10.0665 26.4967 10.0675 26.6008 10.0855C27.2018 10.1883 27.3665 10.4469 27.1805 11.0332C26.8879 11.9544 26.3192 12.7218 25.7634 13.4911C25.1675 14.3147 24.5321 15.1096 23.9422 15.9368C23.4001 16.693 23.443 17.0738 24.1161 17.7305Z"/>
		</g>
	</symbol>
</svg>